PathFileType	4	(X/Y/Z)	C:/Users/opensim2020/Desktop/walking_exp_matlab/subject06_walking15_straight_02.trc																																																																																																																																											
DataRate	CameraRate	NumFrames	NumMarkers	Units	OrigDataRate	OrigDataStartFrame	OrigNumFrames																																																																																																																																							
100	100	9	47	mm	100	1628	218																																																																																																																																							
Frame#	Time	LFHD			RFHD			LBHD			RBHD			C7			T10			CLAV			STRN			RBAK			LSHO			LUPA			LELB			LFRM			LWRA			LWRB			LFIN			RSHO			RUPA			RELB			RFRM			RWRA			RWRB			RFIN			LASI			RASI			LPSI			RPSI			LTHI			LKNE			LTIB			LANK			LHEE			LTOE			RTHI			RKNE			RTIB			RANK			RHEE			RTOE			*39			*40			*41			*42			*43			*44			*45			*46		
		X1	Y1	Z1	X2	Y2	Z2	X3	Y3	Z3	X4	Y4	Z4	X5	Y5	Z5	X6	Y6	Z6	X7	Y7	Z7	X8	Y8	Z8	X9	Y9	Z9	X10	Y10	Z10	X11	Y11	Z11	X12	Y12	Z12	X13	Y13	Z13	X14	Y14	Z14	X15	Y15	Z15	X16	Y16	Z16	X17	Y17	Z17	X18	Y18	Z18	X19	Y19	Z19	X20	Y20	Z20	X21	Y21	Z21	X22	Y22	Z22	X23	Y23	Z23	X24	Y24	Z24	X25	Y25	Z25	X26	Y26	Z26	X27	Y27	Z27	X28	Y28	Z28	X29	Y29	Z29	X30	Y30	Z30	X31	Y31	Z31	X32	Y32	Z32	X33	Y33	Z33	X34	Y34	Z34	X35	Y35	Z35	X36	Y36	Z36	X37	Y37	Z37	X38	Y38	Z38	X39	Y39	Z39	X40	Y40	Z40	X41	Y41	Z41	X42	Y42	Z42	X43	Y43	Z43	X44	Y44	Z44	X45	Y45	Z45	X46	Y46	Z46	X47	Y47	Z47
																																																																																																																																														
137	1.36	35.6322	1652.43677	933.37567	40.30551	1642.19543	1065.4823	-95.52229	1593.33887	937.93054	-88.91659	1588.36182	1066.98035	-88.34147	1432.85583	988.39777	-101.72501	1102.88416	989.13086	26.81776	1362.92407	991.13959	77.36565	1190.40295	982.6076	-152.56464	1257.34399	1055.65527	-25.95748	1395.6355	828.86987	10.23472	1197.66602	755.93701	35.51276	1087.5459	744.51154	142.62997	982.95587	737.41028	260.99356	950.36603	787.95807	222.15305	896.43475	763.83929	307.82977	869.73138	767.05444	-28.72868	1389.5321	1151.30908	-93.81519	1198.11072	1232.6792	-100.82564	1074.69482	1242.08435	-107.77874	954.03149	1257.77478	-76.94878	805.16553	1223.93811	-129.3764	817.60388	1266.25989	-110.15565	735.08496	1266.44824	79.38445	939.43884	893.88397	82.71307	968.17639	1112.03333	-76.37447	969.14545	919.35181	-70.55968	984.68158	1087.32813	-21.25302	619.89557	851.45074	-45.15149	457.17703	871.52673	-243.02017	292.58435	876.75079	-364.88177	169.10847	912.79895	-401.01508	189.03105	958.4566	-297.7023	39.14122	927.16162	87.95203	639.66656	1171.76782	118.99166	519.16467	1140.78076	115.48463	251.28401	1141.04126	122.33487	65.86656	1092.7843	82.78867	40.89075	1050.0415	276.2894	37.16175	1076.79834	-63.5308	1687.64941	996.30518	NaN	NaN	NaN	NaN	NaN	NaN	NaN	NaN	NaN	NaN	NaN	NaN	NaN	NaN	NaN	NaN	NaN	NaN	NaN	NaN	NaN
138	1.37	46.46413	1654.02734	935.06342	51.05007	1643.38416	1066.7019	-84.87198	1594.75549	939.06195	-78.68058	1589.75671	1068.62708	-77.51358	1434.19189	989.44037	-90.87739	1104.44434	990.19519	37.77097	1364.40881	991.93469	88.49909	1191.84473	983.47467	-141.39069	1258.87109	1057.00757	-15.43398	1397.25537	829.98846	19.47896	1199.18408	757.30969	42.00988	1088.00964	746.71918	146.91476	980.81396	739.3382	264.8934	944.96704	789.44183	224.32355	892.37225	765.62201	309.50647	862.93414	768.81061	-17.61209	1391.22229	1152.05396	-81.42062	1199.49609	1233.70056	-87.7409	1076.05811	1243.10254	-93.08269	955.33026	1258.80066	-59.54399	807.05463	1225.18408	-112.58315	818.66064	1267.0675	-92.0624	736.43127	1267.47278	90.06287	940.89954	895.20465	93.31195	969.07227	1113.34741	-65.61585	970.03839	920.80109	-59.63541	986.05975	1088.55457	-4.83002	619.75623	851.90253	-24.21209	456.49826	871.50726	-223.86855	297.30026	877.03265	-349.31137	177.50076	912.12726	-384.09372	199.74434	957.82874	-291.39172	43.17247	926.93561	94.3813	639.41199	1173.22058	125.17386	518.74463	1142.06641	118.26981	251.38028	1140.84863	123.03853	65.96122	1092.44006	83.05796	41.19786	1049.87549	276.91861	36.17496	1076.55688	-52.85279	1688.9928	997.57184	NaN	NaN	NaN	NaN	NaN	NaN	NaN	NaN	NaN	NaN	NaN	NaN	NaN	NaN	NaN	NaN	NaN	NaN	NaN	NaN	NaN
139	1.38	57.0608	1655.26282	936.0954	61.71826	1644.67615	1067.67529	-74.18614	1595.9071	940.14648	-67.50554	1590.75256	1069.33459	-66.59509	1435.19873	990.44879	-80.0901	1105.7124	991.41217	48.7411	1365.65747	992.74414	99.43935	1193.02271	984.42914	-130.2509	1260.05664	1058.5365	-4.76411	1398.48035	831.008	28.55228	1200.0719	758.52142	47.99456	1088.12756	748.56085	150.88493	978.20013	740.98822	268.4693	939.28912	790.82556	226.37469	888.01074	766.62268	310.8049	855.89941	770.41772	-6.34535	1392.71118	1152.9021	-69.01839	1200.69958	1234.84412	-74.74616	1077.26392	1244.29565	-78.36145	956.45544	1259.89648	-41.91175	808.93427	1226.54822	-95.68228	819.42749	1267.80652	-73.55515	737.66876	1268.45862	100.45309	942.04761	896.23523	103.89346	969.66431	1114.52124	-55.22083	970.78174	922.17676	-48.90483	987.16602	1089.87341	11.21396	619.61511	852.23016	-3.27539	456.06683	871.49225	-204.08455	301.67374	876.88855	-332.66669	185.83507	911.86169	-365.94321	210.39378	957.35779	-282.66455	48.35265	926.87671	101.03014	639.31512	1174.28772	131.27043	518.35449	1143.28003	120.96499	251.24879	1140.89172	123.54696	65.98182	1092.11633	83.24371	41.37312	1049.76355	277.32047	35.41982	1076.46021	-42.29273	1690.11902	998.6524	NaN	NaN	NaN	NaN	NaN	NaN	NaN	NaN	NaN	NaN	NaN	NaN	NaN	NaN	NaN	NaN	NaN	NaN	NaN	NaN	NaN
140	1.39	67.568	1656.44263	936.92078	72.4104	1645.97742	1068.55322	-63.52709	1596.79822	941.21606	-56.67416	1591.82397	1070.40295	-55.83401	1436.23767	991.55737	-69.36996	1106.74585	992.68817	59.5952	1366.75293	993.65039	110.16624	1194.01025	985.35101	-119.29002	1261.0575	1060.24426	6.06205	1399.35352	831.86206	37.191	1200.29883	759.72784	54.74261	1087.81079	750.58044	154.76973	975.32153	742.45508	271.72394	933.27112	792.08252	228.36275	883.2851	767.04669	311.84503	848.56799	771.90839	4.90188	1393.92163	1153.85364	-56.59967	1201.66895	1236.18872	-61.81176	1078.20056	1245.67334	-63.68328	957.3598	1261.08972	-24.09945	810.71667	1227.90784	-78.64857	819.99469	1268.55249	-54.94309	738.86523	1269.67065	110.6422	942.97479	897.08569	114.29565	970.11194	1115.58081	-45.0424	971.33179	923.47668	-38.52331	988.08539	1091.14038	27.13373	619.59747	852.53473	17.64437	455.93506	871.44147	-183.38641	304.91748	876.88617	-315.17548	193.87424	911.76465	-347.13779	219.97559	957.40674	-271.76776	54.28458	925.95874	108.02788	639.47687	1175.17224	137.3828	518.17871	1144.30298	123.36343	251.07402	1140.96741	124.00823	65.9917	1091.85547	83.39858	41.51028	1049.66309	277.57861	34.96039	1076.27197	-31.80594	1691.26648	999.53131	NaN	NaN	NaN	NaN	NaN	NaN	NaN	NaN	NaN	NaN	NaN	NaN	NaN	NaN	NaN	NaN	NaN	NaN	NaN	NaN	NaN
141	1.4	78.03262	1657.60815	937.55524	83.17884	1647.32629	1069.23572	-52.95896	1597.75708	942.20892	-45.88232	1592.92041	1071.3667	-44.96483	1437.39014	992.57843	-58.81091	1107.64099	993.89734	70.40664	1367.78003	994.54681	120.6763	1194.83008	986.29559	-108.42717	1261.88757	1061.86169	16.91648	1399.9325	832.60272	45.43486	1199.96912	760.98334	61.20612	1087.27576	752.25549	158.59656	972.18866	743.64398	274.65399	926.8515	793.16437	229.89598	878.40015	767.85492	312.53909	841.09424	773.26501	16.24625	1394.99597	1154.93262	-44.27916	1202.38977	1237.61377	-48.89092	1078.78467	1247.27673	-48.86611	958.0191	1262.41174	-5.81966	812.68774	1229.63477	-61.49297	820.40271	1269.32214	-36.23547	739.69757	1270.46191	120.6223	943.73511	897.85431	124.67046	970.5918	1116.56714	-35.03891	971.8559	924.64307	-28.30533	988.8504	1092.27979	42.9099	619.78302	852.77893	38.48778	456.22229	871.33044	-162.28381	307.77661	876.75305	-297.7659	201.54099	912.2132	-329.08423	227.80145	958.42566	-256.77158	60.35157	924.19678	116.52037	640.20587	1175.85974	143.52142	518.13879	1144.84509	125.80088	251.03088	1140.93738	124.42965	65.99462	1091.65442	83.5077	41.65175	1049.61206	277.72949	34.66065	1076.08459	-21.26064	1692.35291	1000.33582	NaN	NaN	NaN	NaN	NaN	NaN	NaN	NaN	NaN	NaN	NaN	NaN	NaN	NaN	NaN	NaN	NaN	NaN	NaN	NaN	NaN
142	1.41	88.57446	1658.60999	938.1524	93.95245	1648.57654	1069.77869	-42.34972	1598.68762	943.08722	-35.47117	1594.18616	1072.71326	-34.06233	1438.60681	993.54559	-48.40466	1108.46667	995.21472	81.14778	1368.75781	995.4682	131.03889	1195.60083	987.2016	-97.86464	1262.81824	1063.59595	27.74948	1400.34863	833.24005	53.47639	1199.29419	762.34143	68.31583	1086.54858	753.8407	162.39297	969.00562	745.146	277.20444	920.07239	794.15729	231.0291	873.08594	768.54962	312.58395	833.263	774.15594	27.45557	1395.90552	1156.08435	-31.96936	1203.0415	1239.4585	-36.00219	1079.38513	1248.74573	-33.99335	958.58844	1263.77319	12.26775	814.75397	1231.60352	-43.9583	820.59839	1270.04333	-17.05696	740.65118	1271.35974	130.81407	944.69165	898.61621	134.72546	971.19244	1117.42383	-25.1872	972.38916	925.59863	-18.4707	989.63873	1093.30652	58.50581	620.19525	852.92896	59.15942	456.94714	871.1311	-141.32858	310.72647	876.75873	-279.61935	208.36075	913.10791	-311.1199	233.88667	959.71552	-238.38255	66.89088	922.82471	124.67499	640.64081	1176.04602	149.51828	518.19226	1145.07593	128.6983	251.0674	1141.11243	124.84377	66.04578	1091.54382	83.58733	41.78193	1049.58813	278.15744	34.27897	1076.07593	-10.64396	1693.32764	1001.02789	NaN	NaN	NaN	NaN	NaN	NaN	NaN	NaN	NaN	NaN	NaN	NaN	NaN	NaN	NaN	NaN	NaN	NaN	NaN	NaN	NaN
143	1.42	99.13617	1659.67712	938.61774	104.70214	1649.80383	1070.25781	-31.74307	1599.59351	943.90387	-24.15464	1595.21912	1073.10352	-23.21143	1439.96631	994.61877	-38.19662	1109.3313	996.48639	91.82914	1369.698	996.3056	141.28232	1196.34424	988.09143	-87.32584	1263.87842	1065.29919	38.45033	1400.64868	833.88574	61.41161	1198.54749	763.7196	75.26369	1086.00378	755.29858	165.91385	965.75104	746.30823	279.29984	912.98822	794.97522	231.66098	867.64282	769.04767	311.98965	825.29608	774.67676	38.72295	1396.75415	1157.21777	-19.6738	1203.33484	1240.41724	-22.9036	1079.86816	1250.21912	-18.96926	959.07373	1265.14111	30.31492	816.341	1232.83679	-26.30671	820.83075	1270.77124	2.41446	741.69531	1272.21875	141.00175	945.71887	899.32733	144.54828	971.81909	1118.28137	-15.29951	972.90228	926.40247	-8.78987	990.39215	1094.05835	73.98553	621.05835	853.06	79.64085	458.24805	870.85175	-121.2285	314.11453	877.41565	-260.00504	213.66319	914.23279	-291.91992	238.56281	960.96503	-217.33302	72.75199	921.98871	133.76479	642.02161	1175.61963	155.36472	518.22894	1145.22253	131.54608	251.1048	1141.20129	125.1207	66.11829	1091.40649	83.5929	41.90409	1049.61462	278.388	34.06139	1076.01233	-0.01669	1694.40405	1001.68536	NaN	NaN	NaN	NaN	NaN	NaN	NaN	NaN	NaN	NaN	NaN	NaN	NaN	NaN	NaN	NaN	NaN	NaN	NaN	NaN	NaN
144	1.43	109.63149	1660.63684	938.95453	115.56967	1650.99243	1070.65247	-21.1926	1600.48145	944.63519	-13.27944	1596.29578	1073.80347	-12.43526	1441.26563	995.52356	-28.24078	1110.41528	997.76459	102.4189	1370.5741	997.08569	151.38133	1197.10181	989.02808	-76.95281	1265.06824	1067.01587	49.0202	1400.94824	834.53693	69.36301	1197.9823	765.09625	82.34357	1085.38757	756.68073	169.43756	962.4812	747.41534	280.96835	905.76556	795.74957	231.96809	862.1142	768.83728	310.78516	817.21057	774.77765	49.93657	1397.6261	1158.2782	-7.02378	1203.76465	1241.98743	-9.64344	1080.28967	1251.73242	-3.77449	959.58502	1266.55554	48.83411	818.31696	1234.67371	-8.70128	821.3056	1271.65417	22.26658	743.02637	1273.22668	151.25702	946.99384	900.10254	154.06067	972.50391	1119.19812	-5.49277	973.58215	926.93597	0.76538	991.12872	1094.74377	89.55016	622.43201	853.13141	99.75014	460.07932	870.52295	-100.63892	318.03427	878.21429	-239.40776	217.51631	915.31885	-271.80942	241.72781	962.26855	-194.39638	77.31481	921.15637	140.87842	641.97693	1175.33997	161.1228	518.11987	1145.51416	134.18295	251.17889	1141.29761	125.38467	66.18057	1091.21252	83.62419	41.97233	1049.56531	278.58517	33.87179	1075.97339	10.5833	1695.44006	1002.22455	NaN	NaN	NaN	NaN	NaN	NaN	NaN	NaN	NaN	NaN	NaN	NaN	NaN	NaN	NaN	NaN	NaN	NaN	NaN	NaN	NaN
145	1.44	120.15702	1661.62183	939.24829	126.33764	1652.11523	1070.91638	-10.61488	1601.36841	945.3125	-2.42762	1597.36853	1074.42969	-1.80519	1442.37891	996.4668	-18.44673	1111.63953	999.16876	112.79321	1371.38684	997.88544	161.27043	1197.84839	989.97845	-66.83098	1266.53674	1068.70129	59.32411	1401.36902	835.20862	77.40459	1197.72876	766.36279	89.28004	1084.88843	758.02045	172.71048	959.46454	748.59436	282.08734	898.42859	796.39703	231.50551	856.58698	769.60754	308.703	809.2533	774.45721	61.05929	1398.53186	1159.27026	5.41613	1204.20459	1243.30249	3.68417	1080.80737	1253.24182	11.50456	960.22144	1267.91772	67.62649	820.38428	1236.52417	9.17733	821.87201	1272.5509	42.11534	744.43677	1274.17212	161.2728	948.28058	900.841	163.48299	973.24719	1120.07446	4.34032	974.3924	927.43756	10.20989	991.84058	1095.27563	105.31599	624.16064	853.16809	119.6492	462.2811	870.17786	-79.63073	321.18933	878.99524	-218.16873	219.95531	916.39612	-250.90213	243.44821	963.60022	-171.24568	80.85732	920.24121	147.74623	641.78003	1174.93274	166.63509	517.8587	1145.67871	136.3822	251.12114	1141.05237	125.69174	66.31845	1091.21411	83.64491	42.10834	1049.42188	278.75174	33.7308	1075.94446	21.25409	1696.3551	1002.66443	NaN	NaN	NaN	NaN	NaN	NaN	NaN	NaN	NaN	NaN	NaN	NaN	NaN	NaN	NaN	NaN	NaN	NaN	NaN	NaN	NaN
